<?xml version="1.0" encoding="UTF-8"?>
<svg version="1.1" viewBox="0 0 196.52 196.52" xmlns="http://www.w3.org/2000/svg">
 <path d="m47.924 72.797a18.228 18.228 0 0 1-7.7959 7.7597l42.798 42.965 10.318-5.2291zm56.452 56.67-10.318 5.2291 21.686 21.771a18.228 18.228 0 0 1 7.7975-7.7608z" fill="#a730b8"/>
 <path d="m129.66 102.08 1.7865 11.427 27.415-13.894a18.228 18.228 0 0 1-4.9719-9.8124zm-14.066 7.1282-57.289 29.034a18.228 18.228 0 0 1 4.9728 9.8133l54.103-27.419z" fill="#5496be"/>
 <path d="m69.531 91.654 8.1618 8.1933 29.269-57.139a18.228 18.228 0 0 1-9.787-5.0219zm-7.1897 14.036-14.002 27.335a18.228 18.228 0 0 1 9.786 5.0214l12.378-24.164z" fill="#ce3d1a"/>
 <path d="m39.891 80.676a18.228 18.228 0 0 1-10.866 1.7198l8.1762 52.298a18.228 18.228 0 0 1 10.864-1.7198z" fill="#d0188f"/>
 <path d="m63.326 148.31a18.228 18.228 0 0 1-1.7322 10.863l52.289 8.3907a18.228 18.228 0 0 1 1.7322-10.863z" fill="#5b36e9"/>
 <path d="m134.91 146.92a18.228 18.228 0 0 1 9.788 5.0224l24.134-47.117a18.228 18.228 0 0 1-9.7875-5.0229z" fill="#30b873"/>
 <path d="m126.13 33.16a18.228 18.228 0 0 1-7.7975 7.7608l37.376 37.521a18.228 18.228 0 0 1 7.7969-7.7608z" fill="#ebe305"/>
 <path d="m44.77 51.628a18.228 18.228 0 0 1 4.9723 9.8123l47.248-23.945a18.228 18.228 0 0 1-4.9718-9.8113z" fill="#f47601"/>
 <path d="m118.25 40.964a18.228 18.228 0 0 1-10.851 1.8123l4.1853 26.8 11.42 1.8324zm-4.2333 44.193 9.8955 63.363a18.228 18.228 0 0 1 10.88-1.6278l-9.355-59.904z" fill="#57c115"/>
 <path d="m49.776 61.641a18.228 18.228 0 0 1-1.694 10.869l26.821 4.3077 5.2715-10.294zm45.968 7.382-5.272 10.296 63.371 10.178a18.228 18.228 0 0 1 1.7606-10.859z" fill="#dbb210"/>
 <path d="m93.438 23.842a1 1 0 1 0 33.092 1.8025 1 1 0 1 0-33.092-1.8025" fill="#ffca00"/>
 <path d="m155.31 85.957a1 1 0 1 0 33.092 1.8025 1 1 0 1 0-33.092-1.8025" fill="#64ff00"/>
 <path d="m115.35 163.98a1 1 0 1 0 33.092 1.8025 1 1 0 1 0-33.092-1.8025" fill="#00a3ff"/>
 <path d="m28.77 150.09a1 1 0 1 0 33.092 1.8025 1 1 0 1 0-33.092-1.8025" fill="#9500ff"/>
 <path d="m15.23 63.478a1 1 0 1 0 33.092 1.8025 1 1 0 1 0-33.092-1.8025" fill="#f00"/>
 <g fill="none" stroke="#000">
  <g transform="matrix(.081824 0 0 .081507 154.6 69.774)">
   <path d="m209 15a195 195 0 1 0 2 0z" stroke-width="26"/>
   <path d="m210 15v390m195-195h-390m44-120a260 260 0 0 0 302 0m0 240a260 260 0 0 0-302 0m136-310a250 250 0 0 0 0 382m30 0a250 250 0 0 0 0-382" stroke-width="18"/>
  </g>
  <g transform="matrix(.081824 0 0 .081507 92.579 7.7639)">
   <path d="m209 15a195 195 0 1 0 2 0z" stroke-width="26"/>
   <path d="m210 15v390m195-195h-390m44-120a260 260 0 0 0 302 0m0 240a260 260 0 0 0-302 0m136-310a250 250 0 0 0 0 382m30 0a250 250 0 0 0 0-382" stroke-width="18"/>
  </g>
  <g transform="matrix(.081824 0 0 .081507 14.717 47.183)">
   <path d="m209 15a195 195 0 1 0 2 0z" stroke-width="26"/>
   <path d="m210 15v390m195-195h-390m44-120a260 260 0 0 0 302 0m0 240a260 260 0 0 0-302 0m136-310a250 250 0 0 0 0 382m30 0a250 250 0 0 0 0-382" stroke-width="18"/>
  </g>
  <g transform="matrix(.081824 0 0 .081507 114.76 147.76)">
   <path d="m209 15a195 195 0 1 0 2 0z" stroke-width="26"/>
   <path d="m210 15v390m195-195h-390m44-120a260 260 0 0 0 302 0m0 240a260 260 0 0 0-302 0m136-310a250 250 0 0 0 0 382m30 0a250 250 0 0 0 0-382" stroke-width="18"/>
  </g>
  <g transform="matrix(.081824 0 0 .081507 28.032 133.64)">
   <path d="m209 15a195 195 0 1 0 2 0z" stroke-width="26"/>
   <path d="m210 15v390m195-195h-390m44-120a260 260 0 0 0 302 0m0 240a260 260 0 0 0-302 0m136-310a250 250 0 0 0 0 382m30 0a250 250 0 0 0 0-382" stroke-width="18"/>
  </g>
 </g>
</svg>
